# Wavefront OBJ exported by MilkShape 3D

mtllib /rd/neptune.mtl

v 0.000000 21.000000 -0.250000
v 0.000000 -19.500000 -0.250000
v 5.241086 -18.809998 -0.250000
v 4.538913 -18.809998 2.370543
v 2.620543 -18.809998 4.288913
v 0.000000 -18.809998 4.991086
v -2.620543 -18.809998 4.288913
v -4.538913 -18.809998 2.370543
v -5.241086 -18.809998 -0.250000
v -4.538913 -18.809998 -2.870543
v -2.620543 -18.809998 -4.788913
v -0.000000 -18.809998 -5.491086
v 2.620543 -18.809998 -4.788913
v 4.538913 -18.809998 -2.870543
v 10.125000 -16.787014 -0.250000
v 8.768507 -16.787014 4.812500
v 5.062500 -16.787014 8.518507
v 0.000000 -16.787014 9.875000
v -5.062500 -16.787014 8.518507
v -8.768507 -16.787014 4.812500
v -10.125000 -16.787014 -0.250000
v -8.768507 -16.787014 -5.312500
v -5.062500 -16.787014 -9.018507
v -0.000000 -16.787014 -10.375000
v 5.062500 -16.787014 -9.018507
v 8.768507 -16.787014 -5.312500
v 14.318913 -13.568912 -0.250000
v 12.400541 -13.568912 6.909456
v 7.159456 -13.568912 12.150541
v 0.000000 -13.568912 14.068913
v -7.159456 -13.568912 12.150541
v -12.400541 -13.568912 6.909456
v -14.318913 -13.568912 -0.250000
v -12.400541 -13.568912 -7.409456
v -7.159456 -13.568912 -12.650541
v -0.000000 -13.568912 -14.568913
v 7.159456 -13.568912 -12.650541
v 12.400541 -13.568912 -7.409456
v 17.537016 -9.374999 -0.250000
v 15.187501 -9.374999 8.518508
v 8.768508 -9.374999 14.937501
v 0.000000 -9.374999 17.287016
v -8.768508 -9.374999 14.937501
v -15.187501 -9.374999 8.518508
v -17.537016 -9.374999 -0.250000
v -15.187501 -9.374999 -9.018508
v -8.768508 -9.374999 -15.437501
v -0.000000 -9.374999 -17.787016
v 8.768508 -9.374999 -15.437501
v 15.187501 -9.374999 -9.018508
v 19.559998 -4.491086 -0.250000
v 16.939455 -4.491086 9.529999
v 9.779999 -4.491086 16.689455
v 0.000000 -4.491086 19.309998
v -9.779999 -4.491086 16.689455
v -16.939455 -4.491086 9.529999
v -19.559998 -4.491086 -0.250000
v -16.939455 -4.491086 -10.029999
v -9.779999 -4.491086 -17.189455
v -0.000000 -4.491086 -19.809998
v 9.779999 -4.491086 -17.189455
v 16.939455 -4.491086 -10.029999
v 20.250000 0.750001 -0.250000
v 17.537014 0.750001 9.875000
v 10.125000 0.750001 17.287014
v 0.000000 0.750001 20.000000
v -10.125000 0.750001 17.287014
v -17.537014 0.750001 9.875000
v -20.250000 0.750001 -0.250000
v -17.537014 0.750001 -10.375000
v -10.125000 0.750001 -17.787014
v -0.000000 0.750001 -20.500000
v 10.125000 0.750001 -17.787014
v 17.537014 0.750001 -10.375000
v 19.559998 5.991086 -0.250000
v 16.939455 5.991086 9.529999
v 9.779999 5.991086 16.689455
v 0.000000 5.991086 19.309998
v -9.779999 5.991086 16.689455
v -16.939455 5.991086 9.529999
v -19.559998 5.991086 -0.250000
v -16.939455 5.991086 -10.029999
v -9.779999 5.991086 -17.189455
v -0.000000 5.991086 -19.809998
v 9.779999 5.991086 -17.189455
v 16.939455 5.991086 -10.029999
v 17.537014 10.875001 -0.250000
v 15.187499 10.875001 8.518507
v 8.768507 10.875001 14.937499
v 0.000000 10.875001 17.287014
v -8.768507 10.875001 14.937499
v -15.187499 10.875001 8.518507
v -17.537014 10.875001 -0.250000
v -15.187499 10.875001 -9.018507
v -8.768507 10.875001 -15.437499
v -0.000000 10.875001 -17.787014
v 8.768507 10.875001 -15.437499
v 15.187499 10.875001 -9.018507
v 14.318913 15.068913 -0.250000
v 12.400541 15.068913 6.909456
v 7.159456 15.068913 12.150541
v 0.000000 15.068913 14.068913
v -7.159456 15.068913 12.150541
v -12.400541 15.068913 6.909456
v -14.318913 15.068913 -0.250000
v -12.400541 15.068913 -7.409456
v -7.159456 15.068913 -12.650541
v -0.000000 15.068913 -14.568913
v 7.159456 15.068913 -12.650541
v 12.400541 15.068913 -7.409456
v 10.125001 18.287014 -0.250000
v 8.768508 18.287014 4.812500
v 5.062500 18.287014 8.518508
v 0.000000 18.287014 9.875001
v -5.062500 18.287014 8.518508
v -8.768508 18.287014 4.812500
v -10.125001 18.287014 -0.250000
v -8.768508 18.287014 -5.312500
v -5.062500 18.287014 -9.018508
v -0.000000 18.287014 -10.375001
v 5.062500 18.287014 -9.018508
v 8.768508 18.287014 -5.312500
v 5.241087 20.309998 -0.250000
v 4.538915 20.309998 2.370544
v 2.620544 20.309998 4.288915
v 0.000000 20.309998 4.991087
v -2.620544 20.309998 4.288915
v -4.538915 20.309998 2.370544
v -5.241087 20.309998 -0.250000
v -4.538915 20.309998 -2.870544
v -2.620544 20.309998 -4.788915
v -0.000000 20.309998 -5.491087
v 2.620544 20.309998 -4.788915
v 4.538915 20.309998 -2.870544
# 134 vertices

vt 0.044780 0.009926
vt 0.044780 0.092439
vt 0.122671 0.092439
vt 0.044780 1.000080
vt 0.122671 0.917567
vt 0.044780 0.917567
vt 0.122671 0.009926
vt 0.200562 0.092439
vt 0.122671 1.000080
vt 0.200562 0.917567
vt 0.200562 0.009926
vt 0.278454 0.092439
vt 0.200562 1.000080
vt 0.278454 0.917567
vt 0.278454 0.009926
vt 0.356345 0.092439
vt 0.278454 1.000080
vt 0.356345 0.917567
vt 0.356345 0.009926
vt 0.434236 0.092439
vt 0.356345 1.000080
vt 0.434236 0.917567
vt 0.434236 0.009926
vt 0.512128 0.092439
vt 0.434236 1.000080
vt 0.512128 0.917567
vt 0.512128 0.009926
vt 0.590019 0.092439
vt 0.512128 1.000080
vt 0.590019 0.917567
vt 0.590019 0.009926
vt 0.667910 0.092439
vt 0.590019 1.000080
vt 0.667910 0.917567
vt 0.667910 0.009926
vt 0.745802 0.092439
vt 0.667910 1.000080
vt 0.745802 0.917567
vt 0.745802 0.009926
vt 0.823693 0.092439
vt 0.745802 1.000080
vt 0.823693 0.917567
vt 0.823693 0.009926
vt 0.901584 0.092439
vt 0.823693 1.000080
vt 0.901584 0.917567
vt 0.901584 0.009926
vt 0.979475 0.092439
vt 0.901584 1.000080
vt 0.979475 0.917567
vt 0.044780 0.174952
vt 0.122671 0.174952
vt 0.200562 0.174952
vt 0.278454 0.174952
vt 0.356345 0.174952
vt 0.434236 0.174952
vt 0.512128 0.174952
vt 0.590019 0.174952
vt 0.667910 0.174952
vt 0.745802 0.174952
vt 0.823693 0.174952
vt 0.901584 0.174952
vt 0.979475 0.174952
vt 0.044780 0.257465
vt 0.122671 0.257465
vt 0.200562 0.257465
vt 0.278454 0.257465
vt 0.356345 0.257465
vt 0.434236 0.257465
vt 0.512128 0.257465
vt 0.590019 0.257465
vt 0.667910 0.257465
vt 0.745802 0.257465
vt 0.823693 0.257465
vt 0.901584 0.257465
vt 0.979475 0.257465
vt 0.044780 0.339978
vt 0.122671 0.339978
vt 0.200562 0.339978
vt 0.278454 0.339978
vt 0.356345 0.339978
vt 0.434236 0.339978
vt 0.512128 0.339978
vt 0.590019 0.339978
vt 0.667910 0.339978
vt 0.745802 0.339978
vt 0.823693 0.339978
vt 0.901584 0.339978
vt 0.979475 0.339978
vt 0.044780 0.422490
vt 0.122671 0.422490
vt 0.200562 0.422490
vt 0.278454 0.422490
vt 0.356345 0.422490
vt 0.434236 0.422490
vt 0.512128 0.422490
vt 0.590019 0.422490
vt 0.667910 0.422490
vt 0.745802 0.422490
vt 0.823693 0.422490
vt 0.901584 0.422490
vt 0.979475 0.422490
vt 0.044780 0.505003
vt 0.122671 0.505003
vt 0.200562 0.505003
vt 0.278454 0.505003
vt 0.356345 0.505003
vt 0.434236 0.505003
vt 0.512128 0.505003
vt 0.590019 0.505003
vt 0.667910 0.505003
vt 0.745802 0.505003
vt 0.823693 0.505003
vt 0.901584 0.505003
vt 0.979475 0.505003
vt 0.044780 0.587516
vt 0.122671 0.587516
vt 0.200562 0.587516
vt 0.278454 0.587516
vt 0.356345 0.587516
vt 0.434236 0.587516
vt 0.512128 0.587516
vt 0.590019 0.587516
vt 0.667910 0.587516
vt 0.745802 0.587516
vt 0.823693 0.587516
vt 0.901584 0.587516
vt 0.979475 0.587516
vt 0.044780 0.670029
vt 0.122671 0.670029
vt 0.200562 0.670029
vt 0.278454 0.670029
vt 0.356345 0.670029
vt 0.434236 0.670029
vt 0.512128 0.670029
vt 0.590019 0.670029
vt 0.667910 0.670029
vt 0.745802 0.670029
vt 0.823693 0.670029
vt 0.901584 0.670029
vt 0.979475 0.670029
vt 0.044780 0.752542
vt 0.122671 0.752542
vt 0.200562 0.752542
vt 0.278454 0.752542
vt 0.356345 0.752542
vt 0.434236 0.752542
vt 0.512128 0.752542
vt 0.590019 0.752542
vt 0.667910 0.752542
vt 0.745802 0.752542
vt 0.823693 0.752542
vt 0.901584 0.752542
vt 0.979475 0.752542
vt 0.044780 0.835054
vt 0.122671 0.835054
vt 0.200562 0.835054
vt 0.278454 0.835054
vt 0.356345 0.835054
vt 0.434236 0.835054
vt 0.512128 0.835054
vt 0.590019 0.835054
vt 0.667910 0.835054
vt 0.745802 0.835054
vt 0.823693 0.835054
vt 0.901584 0.835054
vt 0.979475 0.835054
# 167 texture coordinates

vn 0.000000 -1.000000 0.000000
vn 0.258819 -0.965926 0.000000
vn 0.224144 -0.965926 0.129410
vn 0.000000 1.000000 0.000000
vn 0.224144 0.965926 0.129410
vn 0.258819 0.965926 0.000000
vn 0.129410 -0.965926 0.224144
vn 0.129410 0.965926 0.224144
vn 0.000000 -0.965926 0.258819
vn 0.000000 0.965926 0.258819
vn -0.129410 -0.965926 0.224144
vn -0.129410 0.965926 0.224144
vn -0.224144 -0.965926 0.129410
vn -0.224144 0.965926 0.129410
vn -0.258819 -0.965926 0.000000
vn -0.258819 0.965926 0.000000
vn -0.224144 -0.965926 -0.129410
vn -0.224144 0.965926 -0.129410
vn -0.129410 -0.965926 -0.224144
vn -0.129410 0.965926 -0.224144
vn -0.000000 -0.965926 -0.258819
vn -0.000000 0.965926 -0.258819
vn 0.129410 -0.965926 -0.224144
vn 0.129410 0.965926 -0.224144
vn 0.224144 -0.965926 -0.129410
vn 0.224144 0.965926 -0.129410
vn 0.500000 -0.866025 0.000000
vn 0.433013 -0.866025 0.250000
vn 0.250000 -0.866025 0.433013
vn 0.000000 -0.866025 0.500000
vn -0.250000 -0.866025 0.433013
vn -0.433013 -0.866025 0.250000
vn -0.500000 -0.866025 0.000000
vn -0.433013 -0.866025 -0.250000
vn -0.250000 -0.866025 -0.433013
vn -0.000000 -0.866025 -0.500000
vn 0.250000 -0.866025 -0.433013
vn 0.433013 -0.866025 -0.250000
vn 0.707107 -0.707107 0.000000
vn 0.612372 -0.707107 0.353553
vn 0.353553 -0.707107 0.612372
vn 0.000000 -0.707107 0.707107
vn -0.353553 -0.707107 0.612372
vn -0.612372 -0.707107 0.353553
vn -0.707107 -0.707107 0.000000
vn -0.612372 -0.707107 -0.353553
vn -0.353553 -0.707107 -0.612372
vn -0.000000 -0.707107 -0.707107
vn 0.353553 -0.707107 -0.612372
vn 0.612372 -0.707107 -0.353553
vn 0.866025 -0.500000 0.000000
vn 0.750000 -0.500000 0.433013
vn 0.433013 -0.500000 0.750000
vn 0.000000 -0.500000 0.866025
vn -0.433013 -0.500000 0.750000
vn -0.750000 -0.500000 0.433013
vn -0.866025 -0.500000 0.000000
vn -0.750000 -0.500000 -0.433013
vn -0.433013 -0.500000 -0.750000
vn -0.000000 -0.500000 -0.866025
vn 0.433013 -0.500000 -0.750000
vn 0.750000 -0.500000 -0.433013
vn 0.965926 -0.258819 0.000000
vn 0.836516 -0.258819 0.482963
vn 0.482963 -0.258819 0.836516
vn 0.000000 -0.258819 0.965926
vn -0.482963 -0.258819 0.836516
vn -0.836516 -0.258819 0.482963
vn -0.965926 -0.258819 0.000000
vn -0.836516 -0.258819 -0.482963
vn -0.482963 -0.258819 -0.836516
vn -0.000000 -0.258819 -0.965926
vn 0.482963 -0.258819 -0.836516
vn 0.836516 -0.258819 -0.482963
vn 1.000000 0.000000 0.000000
vn 0.866025 0.000000 0.500000
vn 0.500000 0.000000 0.866025
vn 0.000000 0.000000 1.000000
vn -0.500000 0.000000 0.866025
vn -0.866025 0.000000 0.500000
vn -1.000000 0.000000 0.000000
vn -0.866025 0.000000 -0.500000
vn -0.500000 0.000000 -0.866025
vn -0.000000 0.000000 -1.000000
vn 0.500000 0.000000 -0.866025
vn 0.866025 0.000000 -0.500000
vn 0.965926 0.258819 0.000000
vn 0.836516 0.258819 0.482963
vn 0.482963 0.258819 0.836516
vn 0.000000 0.258819 0.965926
vn -0.482963 0.258819 0.836516
vn -0.836516 0.258819 0.482963
vn -0.965926 0.258819 0.000000
vn -0.836516 0.258819 -0.482963
vn -0.482963 0.258819 -0.836516
vn -0.000000 0.258819 -0.965926
vn 0.482963 0.258819 -0.836516
vn 0.836516 0.258819 -0.482963
vn 0.866025 0.500000 0.000000
vn 0.750000 0.500000 0.433013
vn 0.433013 0.500000 0.750000
vn 0.000000 0.500000 0.866025
vn -0.433013 0.500000 0.750000
vn -0.750000 0.500000 0.433013
vn -0.866025 0.500000 0.000000
vn -0.750000 0.500000 -0.433013
vn -0.433013 0.500000 -0.750000
vn -0.000000 0.500000 -0.866025
vn 0.433013 0.500000 -0.750000
vn 0.750000 0.500000 -0.433013
vn 0.707107 0.707107 0.000000
vn 0.612372 0.707107 0.353553
vn 0.353553 0.707107 0.612372
vn 0.000000 0.707107 0.707107
vn -0.353553 0.707107 0.612372
vn -0.612372 0.707107 0.353553
vn -0.707107 0.707107 0.000000
vn -0.612372 0.707107 -0.353553
vn -0.353553 0.707107 -0.612372
vn -0.000000 0.707107 -0.707107
vn 0.353553 0.707107 -0.612372
vn 0.612372 0.707107 -0.353553
vn 0.500000 0.866025 0.000000
vn 0.433013 0.866025 0.250000
vn 0.250000 0.866025 0.433013
vn 0.000000 0.866025 0.500000
vn -0.250000 0.866025 0.433013
vn -0.433013 0.866025 0.250000
vn -0.500000 0.866025 0.000000
vn -0.433013 0.866025 -0.250000
vn -0.250000 0.866025 -0.433013
vn -0.000000 0.866025 -0.500000
vn 0.250000 0.866025 -0.433013
vn 0.433013 0.866025 -0.250000
# 134 normals

g Sphere04
usemtl Material02
s 1
f 2/1/1 3/2/2 4/3/3
f 1/4/4 124/5/5 123/6/6
f 2/7/1 4/3/3 5/8/7
f 1/9/4 125/10/8 124/5/5
f 2/11/1 5/8/7 6/12/9
f 1/13/4 126/14/10 125/10/8
f 2/15/1 6/12/9 7/16/11
f 1/17/4 127/18/12 126/14/10
f 2/19/1 7/16/11 8/20/13
f 1/21/4 128/22/14 127/18/12
f 2/23/1 8/20/13 9/24/15
f 1/25/4 129/26/16 128/22/14
f 2/27/1 9/24/15 10/28/17
f 1/29/4 130/30/18 129/26/16
f 2/31/1 10/28/17 11/32/19
f 1/33/4 131/34/20 130/30/18
f 2/35/1 11/32/19 12/36/21
f 1/37/4 132/38/22 131/34/20
f 2/39/1 12/36/21 13/40/23
f 1/41/4 133/42/24 132/38/22
f 2/43/1 13/40/23 14/44/25
f 1/45/4 134/46/26 133/42/24
f 2/47/1 14/44/25 3/48/2
f 1/49/4 123/50/6 134/46/26
f 3/2/2 15/51/27 16/52/28
f 3/2/2 16/52/28 4/3/3
f 4/3/3 16/52/28 5/8/7
f 16/52/28 17/53/29 5/8/7
f 5/8/7 17/53/29 18/54/30
f 5/8/7 18/54/30 6/12/9
f 6/12/9 18/54/30 7/16/11
f 18/54/30 19/55/31 7/16/11
f 7/16/11 19/55/31 20/56/32
f 7/16/11 20/56/32 8/20/13
f 8/20/13 20/56/32 9/24/15
f 20/56/32 21/57/33 9/24/15
f 9/24/15 21/57/33 22/58/34
f 9/24/15 22/58/34 10/28/17
f 10/28/17 22/58/34 11/32/19
f 22/58/34 23/59/35 11/32/19
f 11/32/19 23/59/35 24/60/36
f 11/32/19 24/60/36 12/36/21
f 12/36/21 24/60/36 13/40/23
f 24/60/36 25/61/37 13/40/23
f 13/40/23 25/61/37 26/62/38
f 13/40/23 26/62/38 14/44/25
f 14/44/25 26/62/38 3/48/2
f 26/62/38 15/63/27 3/48/2
f 15/51/27 27/64/39 16/52/28
f 27/64/39 28/65/40 16/52/28
f 16/52/28 28/65/40 29/66/41
f 16/52/28 29/66/41 17/53/29
f 17/53/29 29/66/41 18/54/30
f 29/66/41 30/67/42 18/54/30
f 18/54/30 30/67/42 31/68/43
f 18/54/30 31/68/43 19/55/31
f 19/55/31 31/68/43 20/56/32
f 31/68/43 32/69/44 20/56/32
f 20/56/32 32/69/44 33/70/45
f 20/56/32 33/70/45 21/57/33
f 21/57/33 33/70/45 22/58/34
f 33/70/45 34/71/46 22/58/34
f 22/58/34 34/71/46 35/72/47
f 22/58/34 35/72/47 23/59/35
f 23/59/35 35/72/47 24/60/36
f 35/72/47 36/73/48 24/60/36
f 24/60/36 36/73/48 37/74/49
f 24/60/36 37/74/49 25/61/37
f 25/61/37 37/74/49 26/62/38
f 37/74/49 38/75/50 26/62/38
f 26/62/38 38/75/50 27/76/39
f 26/62/38 27/76/39 15/63/27
f 27/64/39 39/77/51 40/78/52
f 27/64/39 40/78/52 28/65/40
f 28/65/40 40/78/52 29/66/41
f 40/78/52 41/79/53 29/66/41
f 29/66/41 41/79/53 42/80/54
f 29/66/41 42/80/54 30/67/42
f 30/67/42 42/80/54 31/68/43
f 42/80/54 43/81/55 31/68/43
f 31/68/43 43/81/55 44/82/56
f 31/68/43 44/82/56 32/69/44
f 32/69/44 44/82/56 33/70/45
f 44/82/56 45/83/57 33/70/45
f 33/70/45 45/83/57 46/84/58
f 33/70/45 46/84/58 34/71/46
f 34/71/46 46/84/58 35/72/47
f 46/84/58 47/85/59 35/72/47
f 35/72/47 47/85/59 48/86/60
f 35/72/47 48/86/60 36/73/48
f 36/73/48 48/86/60 37/74/49
f 48/86/60 49/87/61 37/74/49
f 37/74/49 49/87/61 50/88/62
f 37/74/49 50/88/62 38/75/50
f 38/75/50 50/88/62 27/76/39
f 50/88/62 39/89/51 27/76/39
f 39/77/51 51/90/63 40/78/52
f 51/90/63 52/91/64 40/78/52
f 40/78/52 52/91/64 53/92/65
f 40/78/52 53/92/65 41/79/53
f 41/79/53 53/92/65 42/80/54
f 53/92/65 54/93/66 42/80/54
f 42/80/54 54/93/66 55/94/67
f 42/80/54 55/94/67 43/81/55
f 43/81/55 55/94/67 44/82/56
f 55/94/67 56/95/68 44/82/56
f 44/82/56 56/95/68 57/96/69
f 44/82/56 57/96/69 45/83/57
f 45/83/57 57/96/69 46/84/58
f 57/96/69 58/97/70 46/84/58
f 46/84/58 58/97/70 59/98/71
f 46/84/58 59/98/71 47/85/59
f 47/85/59 59/98/71 48/86/60
f 59/98/71 60/99/72 48/86/60
f 48/86/60 60/99/72 61/100/73
f 48/86/60 61/100/73 49/87/61
f 49/87/61 61/100/73 50/88/62
f 61/100/73 62/101/74 50/88/62
f 50/88/62 62/101/74 51/102/63
f 50/88/62 51/102/63 39/89/51
f 51/90/63 63/103/75 64/104/76
f 51/90/63 64/104/76 52/91/64
f 52/91/64 64/104/76 53/92/65
f 64/104/76 65/105/77 53/92/65
f 53/92/65 65/105/77 66/106/78
f 53/92/65 66/106/78 54/93/66
f 54/93/66 66/106/78 55/94/67
f 66/106/78 67/107/79 55/94/67
f 55/94/67 67/107/79 68/108/80
f 55/94/67 68/108/80 56/95/68
f 56/95/68 68/108/80 57/96/69
f 68/108/80 69/109/81 57/96/69
f 57/96/69 69/109/81 70/110/82
f 57/96/69 70/110/82 58/97/70
f 58/97/70 70/110/82 59/98/71
f 70/110/82 71/111/83 59/98/71
f 59/98/71 71/111/83 72/112/84
f 59/98/71 72/112/84 60/99/72
f 60/99/72 72/112/84 61/100/73
f 72/112/84 73/113/85 61/100/73
f 61/100/73 73/113/85 74/114/86
f 61/100/73 74/114/86 62/101/74
f 62/101/74 74/114/86 51/102/63
f 74/114/86 63/115/75 51/102/63
f 63/103/75 75/116/87 64/104/76
f 75/116/87 76/117/88 64/104/76
f 64/104/76 76/117/88 77/118/89
f 64/104/76 77/118/89 65/105/77
f 65/105/77 77/118/89 66/106/78
f 77/118/89 78/119/90 66/106/78
f 66/106/78 78/119/90 79/120/91
f 66/106/78 79/120/91 67/107/79
f 67/107/79 79/120/91 68/108/80
f 79/120/91 80/121/92 68/108/80
f 68/108/80 80/121/92 81/122/93
f 68/108/80 81/122/93 69/109/81
f 69/109/81 81/122/93 70/110/82
f 81/122/93 82/123/94 70/110/82
f 70/110/82 82/123/94 83/124/95
f 70/110/82 83/124/95 71/111/83
f 71/111/83 83/124/95 72/112/84
f 83/124/95 84/125/96 72/112/84
f 72/112/84 84/125/96 85/126/97
f 72/112/84 85/126/97 73/113/85
f 73/113/85 85/126/97 74/114/86
f 85/126/97 86/127/98 74/114/86
f 74/114/86 86/127/98 75/128/87
f 74/114/86 75/128/87 63/115/75
f 75/116/87 87/129/99 88/130/100
f 75/116/87 88/130/100 76/117/88
f 76/117/88 88/130/100 77/118/89
f 88/130/100 89/131/101 77/118/89
f 77/118/89 89/131/101 90/132/102
f 77/118/89 90/132/102 78/119/90
f 78/119/90 90/132/102 79/120/91
f 90/132/102 91/133/103 79/120/91
f 79/120/91 91/133/103 92/134/104
f 79/120/91 92/134/104 80/121/92
f 80/121/92 92/134/104 81/122/93
f 92/134/104 93/135/105 81/122/93
f 81/122/93 93/135/105 94/136/106
f 81/122/93 94/136/106 82/123/94
f 82/123/94 94/136/106 83/124/95
f 94/136/106 95/137/107 83/124/95
f 83/124/95 95/137/107 96/138/108
f 83/124/95 96/138/108 84/125/96
f 84/125/96 96/138/108 85/126/97
f 96/138/108 97/139/109 85/126/97
f 85/126/97 97/139/109 98/140/110
f 85/126/97 98/140/110 86/127/98
f 86/127/98 98/140/110 75/128/87
f 98/140/110 87/141/99 75/128/87
f 87/129/99 99/142/111 88/130/100
f 99/142/111 100/143/112 88/130/100
f 88/130/100 100/143/112 101/144/113
f 88/130/100 101/144/113 89/131/101
f 89/131/101 101/144/113 90/132/102
f 101/144/113 102/145/114 90/132/102
f 90/132/102 102/145/114 103/146/115
f 90/132/102 103/146/115 91/133/103
f 91/133/103 103/146/115 92/134/104
f 103/146/115 104/147/116 92/134/104
f 92/134/104 104/147/116 105/148/117
f 92/134/104 105/148/117 93/135/105
f 93/135/105 105/148/117 94/136/106
f 105/148/117 106/149/118 94/136/106
f 94/136/106 106/149/118 107/150/119
f 94/136/106 107/150/119 95/137/107
f 95/137/107 107/150/119 96/138/108
f 107/150/119 108/151/120 96/138/108
f 96/138/108 108/151/120 109/152/121
f 96/138/108 109/152/121 97/139/109
f 97/139/109 109/152/121 98/140/110
f 109/152/121 110/153/122 98/140/110
f 98/140/110 110/153/122 99/154/111
f 98/140/110 99/154/111 87/141/99
f 99/142/111 111/155/123 112/156/124
f 99/142/111 112/156/124 100/143/112
f 100/143/112 112/156/124 101/144/113
f 112/156/124 113/157/125 101/144/113
f 101/144/113 113/157/125 114/158/126
f 101/144/113 114/158/126 102/145/114
f 102/145/114 114/158/126 103/146/115
f 114/158/126 115/159/127 103/146/115
f 103/146/115 115/159/127 116/160/128
f 103/146/115 116/160/128 104/147/116
f 104/147/116 116/160/128 105/148/117
f 116/160/128 117/161/129 105/148/117
f 105/148/117 117/161/129 118/162/130
f 105/148/117 118/162/130 106/149/118
f 106/149/118 118/162/130 107/150/119
f 118/162/130 119/163/131 107/150/119
f 107/150/119 119/163/131 120/164/132
f 107/150/119 120/164/132 108/151/120
f 108/151/120 120/164/132 109/152/121
f 120/164/132 121/165/133 109/152/121
f 109/152/121 121/165/133 122/166/134
f 109/152/121 122/166/134 110/153/122
f 110/153/122 122/166/134 99/154/111
f 122/166/134 111/167/123 99/154/111
f 111/155/123 123/6/6 112/156/124
f 123/6/6 124/5/5 112/156/124
f 112/156/124 124/5/5 125/10/8
f 112/156/124 125/10/8 113/157/125
f 113/157/125 125/10/8 114/158/126
f 125/10/8 126/14/10 114/158/126
f 114/158/126 126/14/10 127/18/12
f 114/158/126 127/18/12 115/159/127
f 115/159/127 127/18/12 116/160/128
f 127/18/12 128/22/14 116/160/128
f 116/160/128 128/22/14 129/26/16
f 116/160/128 129/26/16 117/161/129
f 117/161/129 129/26/16 118/162/130
f 129/26/16 130/30/18 118/162/130
f 118/162/130 130/30/18 131/34/20
f 118/162/130 131/34/20 119/163/131
f 119/163/131 131/34/20 120/164/132
f 131/34/20 132/38/22 120/164/132
f 120/164/132 132/38/22 133/42/24
f 120/164/132 133/42/24 121/165/133
f 121/165/133 133/42/24 122/166/134
f 133/42/24 134/46/26 122/166/134
f 122/166/134 134/46/26 123/50/6
f 122/166/134 123/50/6 111/167/123
# 264 triangles in group

# 264 triangles total

